<svg id="visual" viewBox="0 0 900 600" width="900" height="600" xmlns="http://www.w3.org/2000/svg" xmlns:xlink="http://www.w3.org/1999/xlink" version="1.1"><path d="M0 460L21.5 456.8C43 453.7 86 447.3 128.8 440.7C171.7 434 214.3 427 257.2 439.8C300 452.7 343 485.3 385.8 494.3C428.7 503.3 471.3 488.7 514.2 477.8C557 467 600 460 642.8 451.8C685.7 443.7 728.3 434.3 771.2 440.3C814 446.3 857 467.7 878.5 478.3L900 489L900 601L878.5 601C857 601 814 601 771.2 601C728.3 601 685.7 601 642.8 601C600 601 557 601 514.2 601C471.3 601 428.7 601 385.8 601C343 601 300 601 257.2 601C214.3 601 171.7 601 128.8 601C86 601 43 601 21.5 601L0 601Z" fill="#6600FF" stroke-linecap="round" stroke-linejoin="miter"></path></svg>